HIERARCHY
ROOT Hips
{
  OFFSET 5.84602e-005 68.8428 3.50346
  CHANNELS 6 Xposition Yposition Zposition Zrotation Xrotation Yrotation
  JOINT Spine
  {
    OFFSET 0 8.597 -4.6522
    CHANNELS 3 Zrotation Xrotation Yrotation
    JOINT Spine1
    {
      OFFSET 0 7.8454 0.4098
      CHANNELS 3 Zrotation Xrotation Yrotation
      JOINT Spine2
      {
        OFFSET 0 9.7078 -2.1609
        CHANNELS 3 Zrotation Xrotation Yrotation
        JOINT Neck
        {
          OFFSET 0 21.8761 -0.4549
          CHANNELS 3 Zrotation Xrotation Yrotation
          JOINT Head
          {
            OFFSET 0 12.3537 3.3602
            CHANNELS 3 Zrotation Xrotation Yrotation
            End Site
            {
              OFFSET 0.0001 18.9506 0.5657
            }
          }
        }
        JOINT LeftShoulder
        {
          OFFSET 2.2086 21.1115 7.2329
          CHANNELS 3 Zrotation Xrotation Yrotation
          JOINT LeftArm
          {
            OFFSET 13.1193 3.0282 -4.8998
            CHANNELS 3 Zrotation Xrotation Yrotation
            JOINT LeftForeArm
            {
              OFFSET 27.4081 -0.0973053 -0.2375
              CHANNELS 3 Zrotation Xrotation Yrotation
              JOINT LeftHand
              {
                OFFSET 22.8641 0.0662994 -0.1369
                CHANNELS 3 Zrotation Xrotation Yrotation
                JOINT LeftHandIndex1
                {
                  OFFSET 8.8614 0.775009 2.4612
                  CHANNELS 3 Zrotation Xrotation Yrotation
                  JOINT LeftHandIndex2
                  {
                    OFFSET 3.3146 -0.808304 0.5841
                    CHANNELS 3 Zrotation Xrotation Yrotation
                    JOINT LeftHandIndex3
                    {
                      OFFSET 2.2628 -0.552002 0.3989
                      CHANNELS 3 Zrotation Xrotation Yrotation
                      End Site
                      {
                        OFFSET 1.6102 -0.4807 0.2612
                      }
                    }
                  }
                }
                JOINT LeftHandMiddle1
                {
                  OFFSET 8.9937 0.895004 0.2143
                  CHANNELS 3 Zrotation Xrotation Yrotation
                  JOINT LeftHandMiddle2
                  {
                    OFFSET 4.0984 0.0113983 -0.0242
                    CHANNELS 3 Zrotation Xrotation Yrotation
                    JOINT LeftHandMiddle3
                    {
                      OFFSET 2.2716 0.00689697 -0.0138001
                      CHANNELS 3 Zrotation Xrotation Yrotation
                      End Site
                      {
                        OFFSET 2.0404 -0.1441 0.0027
                      }
                    }
                  }
                }
                JOINT LeftHandRing1
                {
                  OFFSET 8.5234 0.597198 -2.0164
                  CHANNELS 3 Zrotation Xrotation Yrotation
                  JOINT LeftHandRing2
                  {
                    OFFSET 3.7188 -0.188293 -0.2328
                    CHANNELS 3 Zrotation Xrotation Yrotation
                    JOINT LeftHandRing3
                    {
                      OFFSET 2.1191 -0.106598 -0.1332
                      CHANNELS 3 Zrotation Xrotation Yrotation
                      End Site
                      {
                        OFFSET 1.8737 -0.2304 -0.0886
                      }
                    }
                  }
                }
                JOINT LeftHandPinky1
                {
                  OFFSET 7.9094 -0.601089 -3.4825
                  CHANNELS 3 Zrotation Xrotation Yrotation
                  JOINT LeftHandPinky2
                  {
                    OFFSET 2.2874 -0.477005 -0.6314
                    CHANNELS 3 Zrotation Xrotation Yrotation
                    JOINT LeftHandPinky3
                    {
                      OFFSET 1.6774 -0.349396 -0.4633
                      CHANNELS 3 Zrotation Xrotation Yrotation
                      End Site
                      {
                        OFFSET 1.4888 -0.4091 -0.3416
                      }
                    }
                  }
                }
                JOINT LeftHandThumb1
                {
                  OFFSET 1.833 -1.3875 1.3896
                  CHANNELS 3 Zrotation Xrotation Yrotation
                  JOINT LeftHandThumb2
                  {
                    OFFSET 3.4129 -1.121 2.5732
                    CHANNELS 3 Zrotation Xrotation Yrotation
                    JOINT LeftHandThumb3
                    {
                      OFFSET 2.2474 -0.804199 1.6192
                      CHANNELS 3 Zrotation Xrotation Yrotation
                      End Site
                      {
                        OFFSET 1.6527 -0.5689 1.1317
                      }
                    }
                  }
                }
              }
            }
          }
        }
        JOINT RightShoulder
        {
          OFFSET -2.2086 21.1115 7.2329
          CHANNELS 3 Zrotation Xrotation Yrotation
          JOINT RightArm
          {
            OFFSET -13.1216 3.0287 -4.9007
            CHANNELS 3 Zrotation Xrotation Yrotation
            JOINT RightForeArm
            {
              OFFSET -27.4081 -0.0973053 -0.2375
              CHANNELS 3 Zrotation Xrotation Yrotation
              JOINT RightHand
              {
                OFFSET -22.8641 0.0664063 -0.1369
                CHANNELS 3 Zrotation Xrotation Yrotation
                JOINT RightHandIndex1
                {
                  OFFSET -8.8614 0.774994 2.4612
                  CHANNELS 3 Zrotation Xrotation Yrotation
                  JOINT RightHandIndex2
                  {
                    OFFSET -3.3146 -0.808304 0.5841
                    CHANNELS 3 Zrotation Xrotation Yrotation
                    JOINT RightHandIndex3
                    {
                      OFFSET -2.2628 -0.552002 0.3989
                      CHANNELS 3 Zrotation Xrotation Yrotation
                      End Site
                      {
                        OFFSET -1.6102 -0.4807 0.2612
                      }
                    }
                  }
                }
                JOINT RightHandMiddle1
                {
                  OFFSET -8.9937 0.894989 0.2143
                  CHANNELS 3 Zrotation Xrotation Yrotation
                  JOINT RightHandMiddle2
                  {
                    OFFSET -4.0984 0.0113983 -0.0242
                    CHANNELS 3 Zrotation Xrotation Yrotation
                    JOINT RightHandMiddle3
                    {
                      OFFSET -2.2716 0.00691223 -0.0138001
                      CHANNELS 3 Zrotation Xrotation Yrotation
                      End Site
                      {
                        OFFSET -2.0404 -0.1441 0.0027
                      }
                    }
                  }
                }
                JOINT RightHandRing1
                {
                  OFFSET -8.5234 0.597198 -2.0164
                  CHANNELS 3 Zrotation Xrotation Yrotation
                  JOINT RightHandRing2
                  {
                    OFFSET -3.7188 -0.188309 -0.2328
                    CHANNELS 3 Zrotation Xrotation Yrotation
                    JOINT RightHandRing3
                    {
                      OFFSET -2.1191 -0.106598 -0.1332
                      CHANNELS 3 Zrotation Xrotation Yrotation
                      End Site
                      {
                        OFFSET -1.8737 -0.2304 -0.0886
                      }
                    }
                  }
                }
                JOINT RightHandPinky1
                {
                  OFFSET -7.9094 -0.601105 -3.4825
                  CHANNELS 3 Zrotation Xrotation Yrotation
                  JOINT RightHandPinky2
                  {
                    OFFSET -2.2874 -0.477005 -0.6314
                    CHANNELS 3 Zrotation Xrotation Yrotation
                    JOINT RightHandPinky3
                    {
                      OFFSET -1.6774 -0.349396 -0.4633
                      CHANNELS 3 Zrotation Xrotation Yrotation
                      End Site
                      {
                        OFFSET -1.4888 -0.4091 -0.3416
                      }
                    }
                  }
                }
                JOINT RightHandThumb1
                {
                  OFFSET -1.833 -1.38751 1.3896
                  CHANNELS 3 Zrotation Xrotation Yrotation
                  JOINT RightHandThumb2
                  {
                    OFFSET -3.41299 -1.12099 2.5732
                    CHANNELS 3 Zrotation Xrotation Yrotation
                    JOINT RightHandThumb3
                    {
                      OFFSET -2.24741 -0.804108 1.6192
                      CHANNELS 3 Zrotation Xrotation Yrotation
                      End Site
                      {
                        OFFSET -1.6527 -0.5689 1.1317
                      }
                    }
                  }
                }
              }
            }
          }
        }
      }
    }
  }
  JOINT RightUpLeg
  {
    OFFSET -9.1966 3.8861 -0.7581
    CHANNELS 3 Zrotation Xrotation Yrotation
    JOINT RightLeg
    {
      OFFSET -0.7359 -41.0265 0
      CHANNELS 3 Zrotation Xrotation Yrotation
      JOINT RightFoot
      {
        OFFSET 0 -40.2855 0
        CHANNELS 3 Zrotation Xrotation Yrotation
        JOINT RightToeBase
        {
          OFFSET 0 -5.6122 11.7359
          CHANNELS 3 Zrotation Xrotation Yrotation
          End Site
          {
            OFFSET 0 0 7.8731
          }
        }
      }
    }
  }
  JOINT LeftUpLeg
  {
    OFFSET 9.1965 3.8864 -0.7581
    CHANNELS 3 Zrotation Xrotation Yrotation
    JOINT LeftLeg
    {
      OFFSET 0.7359 -41.0268 0
      CHANNELS 3 Zrotation Xrotation Yrotation
      JOINT LeftFoot
      {
        OFFSET 0 -40.2855 0
        CHANNELS 3 Zrotation Xrotation Yrotation
        JOINT LeftToeBase
        {
          OFFSET 0 -5.6122 11.7359
          CHANNELS 3 Zrotation Xrotation Yrotation
          End Site
          {
            OFFSET 0 0 7.8731
          }
        }
      }
    }
  }
}
MOTION
Frames:	5
Frame Time:	0.0333333
5.84602e-005 68.8428 3.50346 0 0 -0 0 0 -0 0 0 -0 0 0 -0 0 0 -0 0 0 -0 0 0 -0 0 0 -0 0 0 -0 0 0 -0 0 0 -0 0 0 -0 0 0 -0 0 0 -0 -0.0146107 -8.87603e-005 -2.63497e-007 2.99804e-018 -2.42657e-020 -1.42182e-022 0 0 -0 -0.0187562 -0.001176 5.858e-005 5.06224e-018 3.88251e-019 1.21329e-020 0 0 -0 -0.012269 -0.00324817 0.000675346 -1.74678e-018 3.88251e-019 -0 0 0 -0 0 0 -0 0 0 -0 0 0 -0 0 0 -0 0 0 -0 0 0 -0 0 0 -0 0 0 -0 0 0 -0 0 0 -0 0.0149955 -9.10982e-005 2.64101e-007 -9.69331e-018 1.21329e-020 -4.7394e-023 0 0 -0 0.0189956 -0.00119102 -5.96516e-005 -5.41541e-019 0 2.42657e-020 0 0 -0 0.0122698 -0.00324857 -0.000673756 -2.00796e-019 0 -1.94126e-019 0 0 -0 0 0 -0 0 0 -0 3.39842 1.33031 -0.0637918 -5.65207e-008 0.834868 -0.000436188 -3.39935 -2.16518 -0.0642563 -8.89002e-024 -1.18485e-023 -1.48106e-024 -3.39844 1.35642 0.0640283 -3.18788e-007 0.782166 -0.000588827 3.39931 -2.13858 0.0634662 1.1399e-023 0 -0 
-44.2385 57.7885 8.45811 3.50018 -11.0067 100.685 1.09467 4.33215 -2.68764 2.40274 8.60711 -5.48136 2.40274 8.6071 -5.48136 -0.0536577 10.3027 8.17721 6.5095 1.13634 40.8686 7.61821 11.85 10.2311 18.7781 -14.6458 -25.4128 13.9993 -4.62079 -54.3129 -55.0577 -34.3378 -63.8578 4.77083e-015 -4.77083e-015 -3.18055e-015 3.18055e-015 -6.36111e-015 -3.18055e-015 7.95139e-015 -1.59028e-015 -0 4.77083e-015 -4.77083e-015 -3.18055e-015 -0.0146004 -8.7005e-005 7.09432e-007 -9.54166e-015 3.18055e-015 -3.18055e-015 4.77083e-015 -4.77083e-015 -3.18055e-015 -0.0187775 -0.00117765 6.39803e-005 -6.36111e-015 0 -0 4.77083e-015 -4.77083e-015 -3.18055e-015 -0.0122494 -0.00324459 0.000676051 -6.36111e-015 -6.36111e-015 3.18055e-015 4.77083e-015 -4.77083e-015 -3.18055e-015 3.18055e-015 -6.36111e-015 -3.18055e-015 7.95139e-015 -1.59028e-015 -0 -45.2981 13.0285 33.6271 21.7009 12.2948 73.0461 -63.1373 -32.0497 44.1377 -44.2435 1.71082 18.8879 -2.42501e-006 1.96026e-006 5.40979e-007 -2.42501e-006 1.96026e-006 5.40979e-007 9.8013e-007 1.21251e-006 6.41661e-007 -2.42501e-006 1.96026e-006 5.40979e-007 0.0149836 -8.85254e-005 5.08519e-006 9.80166e-007 1.21259e-006 6.41502e-007 -2.42501e-006 1.96026e-006 5.40979e-007 0.0189365 -0.00118404 -6.30428e-005 9.8018e-007 1.21261e-006 6.4145e-007 -2.42501e-006 1.96026e-006 5.40979e-007 0.0121603 -0.00321796 -0.000661808 9.80169e-007 1.21257e-006 6.41503e-007 -2.42501e-006 1.96026e-006 5.40979e-007 -2.42501e-006 1.96026e-006 5.40979e-007 9.8013e-007 1.21251e-006 6.41661e-007 -20.0744 -65.2111 -32.5139 -12.184 77.2066 19.3238 -23.7805 3.21633 -9.9 1.10632e-006 5.41715e-007 5.52299e-007 -80.8587 -51.9282 -72.9916 -80.1331 59.7307 77.6336 -4.15752 -2.49144 6.92177 3.46292e-006 -1.61927e-006 7.91609e-008 
-44.2385 57.7885 8.45811 3.50018 -11.0067 100.685 1.09467 4.33215 -2.68764 2.40274 8.60711 -5.48136 2.40274 8.6071 -5.48136 -0.0536577 10.3027 8.17721 6.50178 1.15091 40.9672 7.61821 11.85 10.2311 18.7781 -14.6458 -25.4128 13.9993 -4.6208 -54.3129 -55.0577 -34.3378 -63.8578 -1.59028e-015 1.59028e-015 -0 3.53113e-031 3.18055e-015 -6.36111e-015 1.11319e-014 4.77083e-015 9.54166e-015 -1.59028e-015 1.59028e-015 -0 -0.0145901 -8.82189e-005 -1.31656e-006 -3.18055e-015 1.59028e-015 -3.18055e-015 -1.59028e-015 1.59028e-015 -0 -0.018762 -0.00117618 5.73063e-005 -6.36111e-015 1.27222e-014 1.27222e-014 -1.59028e-015 1.59028e-015 -0 -0.0122385 -0.00323813 0.000677816 -1.59028e-015 4.77083e-015 -3.18055e-015 -1.59028e-015 1.59028e-015 -0 3.53113e-031 3.18055e-015 -6.36111e-015 1.11319e-014 4.77083e-015 9.54166e-015 -45.2981 13.0285 33.6271 22.2225 12.4641 72.7494 -62.0079 -31.3771 44.9136 -44.2435 1.71083 18.8879 -6.36111e-015 -1.27222e-014 -0 -0 -1.43125e-014 -0 3.18055e-015 -1.27222e-014 -3.18055e-015 -6.36111e-015 -1.27222e-014 -0 0.0150349 -9.42148e-005 -3.14747e-006 -6.36111e-015 -1.59028e-015 4.77083e-015 -6.36111e-015 -1.27222e-014 -0 0.0189695 -0.00118762 -6.2121e-005 1.32417e-031 -4.77083e-015 1.59028e-015 -6.36111e-015 -1.27222e-014 -0 0.0122245 -0.00323745 -0.00066703 3.18055e-015 -3.18055e-015 1.59028e-015 -6.36111e-015 -1.27222e-014 -0 -0 -1.43125e-014 -0 3.18055e-015 -1.27222e-014 -3.18055e-015 -20.0744 -65.2111 -32.5139 -12.184 77.2066 19.3238 -23.7805 3.21635 -9.89999 1.679e-007 -4.67646e-006 -1.15871e-006 -80.8587 -51.9282 -72.9916 -80.1331 59.7307 77.6336 -4.15752 -2.49144 6.92177 3.46292e-006 -1.61927e-006 7.91609e-008 
-44.2385 57.7885 8.45811 3.50018 -11.0067 100.685 1.09468 4.33216 -2.68764 2.40274 8.6071 -5.48135 2.40275 8.6071 -5.48137 -0.0537271 10.302 8.1773 6.49404 1.16548 41.0658 7.61821 11.85 10.2311 18.7781 -14.6458 -25.4128 13.9993 -4.62079 -54.3129 -55.0577 -34.3378 -63.8579 -3.53113e-031 -6.36111e-015 -3.18055e-015 -1.59028e-015 -6.36111e-015 -0 -0 -1.59028e-015 -0 -3.53113e-031 -6.36111e-015 -3.18055e-015 -0.0145807 -8.86001e-005 -9.53143e-007 -1.59028e-015 4.77083e-015 9.54166e-015 -3.53113e-031 -6.36111e-015 -3.18055e-015 -0.0187783 -0.00117654 6.09553e-005 -3.18055e-015 -1.59028e-015 -3.18055e-015 -3.53113e-031 -6.36111e-015 -3.18055e-015 -0.0122325 -0.00323847 0.000672062 4.77083e-015 3.18055e-015 6.36111e-015 -3.53113e-031 -6.36111e-015 -3.18055e-015 -1.59028e-015 -6.36111e-015 -0 -0 -1.59028e-015 -0 -45.2981 13.0285 33.6271 22.746 12.631 72.4506 -60.8932 -30.6892 45.6711 -44.2435 1.71081 18.8879 -8.82781e-032 -3.18055e-015 -1.59028e-015 6.36111e-015 -3.18055e-015 -3.18055e-015 6.36111e-015 6.36111e-015 -1.59028e-015 -8.82781e-032 -3.18055e-015 -1.59028e-015 0.0149812 -8.91218e-005 -1.26843e-006 -8.82781e-032 3.18055e-015 1.59028e-015 -8.82781e-032 -3.18055e-015 -1.59028e-015 0.019064 -0.0012009 -5.38718e-005 3.18055e-015 -1.59028e-015 -4.77083e-015 -8.82781e-032 -3.18055e-015 -1.59028e-015 0.0122486 -0.00324534 -0.0006702 -4.8951e-008 6.67497e-007 -9.15347e-007 -8.82781e-032 -3.18055e-015 -1.59028e-015 6.36111e-015 -3.18055e-015 -3.18055e-015 6.36111e-015 6.36111e-015 -1.59028e-015 -20.0743 -65.211 -32.5139 -12.184 77.2066 19.3237 -23.7805 3.21632 -9.90002 2.42218e-006 -2.25428e-006 -4.32996e-007 -80.8587 -51.9282 -72.9916 -80.1331 59.7307 77.6336 -4.15751 -2.49148 6.9218 2.54273e-006 -1.69597e-006 -9.71723e-007 
-44.2385 57.7885 8.45811 3.50018 -11.0067 100.685 1.09468 4.33216 -2.68764 2.40274 8.60711 -5.48137 2.40274 8.6071 -5.48138 -0.0536322 10.3022 8.17726 6.48625 1.18003 41.1644 7.6182 11.85 10.2311 18.7781 -14.6458 -25.4128 13.9993 -4.62079 -54.3129 -55.0577 -34.3378 -63.8579 7.95139e-015 3.18055e-015 -3.18055e-015 2.20053e-006 6.61739e-007 -4.89202e-007 -1.59028e-015 -7.95139e-015 -3.18055e-015 7.95139e-015 3.18055e-015 -3.18055e-015 -0.0146065 -8.92691e-005 -5.14794e-006 -4.77083e-015 -3.18055e-015 3.18055e-015 7.95139e-015 3.18055e-015 -3.18055e-015 -0.0187696 -0.00117581 5.82921e-005 -1.11319e-014 9.54166e-015 6.36111e-015 7.95139e-015 3.18055e-015 -3.18055e-015 -0.012245 -0.00324327 0.000675074 -1.37605e-006 -5.35385e-007 1.67428e-007 7.95139e-015 3.18055e-015 -3.18055e-015 2.20053e-006 6.61739e-007 -4.89202e-007 -1.59028e-015 -7.95139e-015 -3.18055e-015 -45.2981 13.0284 33.6272 23.2712 12.7953 72.1497 -59.7932 -29.9865 46.4103 -44.2435 1.71082 18.8879 1.59028e-014 3.18055e-015 1.59028e-015 1.27222e-014 4.77083e-015 1.59028e-015 3.18055e-015 1.59028e-015 -0 1.59028e-014 3.18055e-015 1.59028e-015 0.0149422 -8.88568e-005 1.05035e-006 -3.18055e-015 -1.59028e-015 -1.59028e-015 1.59028e-014 3.18055e-015 1.59028e-015 0.0189669 -0.00118618 -5.46913e-005 9.54166e-015 1.59028e-015 6.36111e-015 1.59028e-014 3.18055e-015 1.59028e-015 0.0122241 -0.00323011 -0.000679116 3.18055e-015 3.18055e-015 -6.36111e-015 1.59028e-014 3.18055e-015 1.59028e-015 1.27222e-014 4.77083e-015 1.59028e-015 3.18055e-015 1.59028e-015 -0 -20.0743 -65.2111 -32.5138 -12.1841 77.2066 19.3238 -23.7805 3.21632 -9.90001 -7.01469e-006 -2.51848e-007 -4.39071e-007 -80.8587 -51.9282 -72.9916 -80.1332 59.7307 77.6337 -4.15751 -2.49147 6.9218 -1.59028e-014 -9.54166e-015 4.77083e-015 
